<svg xmlns="http://www.w3.org/2000/svg" viewBox="0 0 1440 320">
  <path fill="#273036" fill-opacity="1" d="M0,224L7.5,192C15,160,30,96,45,74.7C60,53,75,75,90,80C105,85,120,75,135,96C150,117,165,171,180,213.3C195,256,210,288,225,293.3C240,299,255,277,270,256C285,235,300,213,315,176C330,139,345,85,360,101.3C375,117,390,203,405,202.7C420,203,435,117,450,85.3C465,53,480,75,495,85.3C510,96,525,96,540,112C555,128,570,160,585,192C600,224,615,256,630,266.7C645,277,660,267,675,256C690,245,705,235,720,202.7C735,171,750,117,765,122.7C780,128,795,192,810,181.3C825,171,840,85,855,90.7C870,96,885,192,900,213.3C915,235,930,181,945,138.7C960,96,975,64,990,80C1005,96,1020,160,1035,197.3C1050,235,1065,245,1080,229.3C1095,213,1110,171,1125,149.3C1140,128,1155,128,1170,112C1185,96,1200,64,1215,69.3C1230,75,1245,117,1260,122.7C1275,128,1290,96,1305,85.3C1320,75,1335,85,1350,85.3C1365,85,1380,75,1395,106.7C1410,139,1425,213,1433,250.7L1440,288L1440,320L1432.5,320C1425,320,1410,320,1395,320C1380,320,1365,320,1350,320C1335,320,1320,320,1305,320C1290,320,1275,320,1260,320C1245,320,1230,320,1215,320C1200,320,1185,320,1170,320C1155,320,1140,320,1125,320C1110,320,1095,320,1080,320C1065,320,1050,320,1035,320C1020,320,1005,320,990,320C975,320,960,320,945,320C930,320,915,320,900,320C885,320,870,320,855,320C840,320,825,320,810,320C795,320,780,320,765,320C750,320,735,320,720,320C705,320,690,320,675,320C660,320,645,320,630,320C615,320,600,320,585,320C570,320,555,320,540,320C525,320,510,320,495,320C480,320,465,320,450,320C435,320,420,320,405,320C390,320,375,320,360,320C345,320,330,320,315,320C300,320,285,320,270,320C255,320,240,320,225,320C210,320,195,320,180,320C165,320,150,320,135,320C120,320,105,320,90,320C75,320,60,320,45,320C30,320,15,320,8,320L0,320Z"></path>
</svg>