<svg xmlns="http://www.w3.org/2000/svg" version="1.1" xmlns:xlink="http://www.w3.org/1999/xlink" xmlns:svgjs="http://svgjs.dev/svgjs" width="1440" height="560" preserveAspectRatio="none" viewBox="0 0 1440 560">
    <g mask="url(&quot;#SvgjsMask1068&quot;)" fill="none">
        <rect width="1440" height="560" x="0" y="0" fill="#050f1a"></rect>
        <rect width="1440" height="560" x="0" y="0" fill="#071523"></rect>
        <path d="M -76.09737732360861,344 C -18.5,325.6 96.7,233.6 211.9026226763914,252 C 327.1,270.4 384.7,453.6 499.9026226763914,436 C 615.1,418.4 672.7,182.4 787.9026226763914,164 C 903.1,145.6 960.7,327.6 1075.9026226763913,344 C 1191.1,360.4 1248.7,218.2 1363.9026226763913,246 C 1479.1,273.8 1636.68,509.2 1651.9026226763913,483 C 1667.12,456.8 1482.38,188.6 1440,115" stroke="rgba(51, 121, 194, 0.58)" stroke-width="2"></path>
        <path d="M -22.257018521111547,359 C 35.34,313.6 150.54,137.4 265.74298147888845,132 C 380.94,126.6 438.54,320.4 553.7429814788884,332 C 668.94,343.6 726.54,165.8 841.7429814788884,190 C 956.94,214.2 1014.54,456 1129.7429814788884,453 C 1244.94,450 1302.54,189.6 1417.7429814788884,175 C 1532.94,160.4 1701.29,384 1705.7429814788884,380 C 1710.19,376 1493.15,200 1440,155" stroke="rgba(51, 121, 194, 0.58)" stroke-width="2"></path>
    </g>
    <defs>
        <mask id="SvgjsMask1068">
            <rect width="1440" height="560" fill="#ffffff"></rect>
        </mask>
    </defs>
</svg>